{"title":"Mere Mehboob 1963 1CD Dvdrip X264 AAC [DADA]","uid":8217602,"size":945602136,"categoryP":"video","categoryS":"movies","magnet":"?xt=urn:btih:602150fcd2f0ef3589306c588de2a58ce9f0c0f1&amp;dn=Mere+Mehboob+1963+1CD+Dvdrip+X264+AAC+%5BDADA%5D&amp;tr=udp%3A%2F%2Ftracker.openbittorrent.com%3A80&amp;tr=udp%3A%2F%2Fopen.demonii.com%3A1337&amp;tr=udp%3A%2F%2Ftracker.coppersurfer.tk%3A6969&amp;tr=udp%3A%2F%2Fexodus.desync.com%3A6969","seeders":3,"leechers":1,"uploader":"brego45","files":1,"time":1362378694,"description":"\nCover -\n\n\n\n    &lt;a href=&quot;\thttp://desibbrg.org/images/93386763105409509804.jpg&quot; rel=&quot;nofollow&quot; target=&quot;_NEW&quot;&gt;\thttp://desibbrg.org/images/93386763105409509804.jpg&lt;/a&gt;\n\nScreens -\n\n &lt;a href=&quot;\nhttp://desibbrg.net/imghost/show.php?img=430005_Mere.Mehboob.1963.Dvdrip.X264.AAC.RRG.DADA.DBBIANS.Comthumbs.jpg.html&quot; rel=&quot;nofollow&quot; target=&quot;_NEW&quot;&gt;\nhttp://desibbrg.net/imghost/show.php?img=430005_Mere.Mehboob.1963.Dvdrip.X264.AAC.RRG.DADA.DBBIANS.Comthumbs.jpg.html&lt;/a&gt;\n\nInfo -\n\n &lt;a href=&quot;\nhttp://www.imdb.com/title/tt0266765/&quot; rel=&quot;nofollow&quot; target=&quot;_NEW&quot;&gt;\nhttp://www.imdb.com/title/tt0266765/&lt;/a&gt;\n\n\n\nGeneral\n\nFormat : Mp4 Video\nFile size : 902 MiB\nDuration : 2h 42mn\nOverall bit rate : 775 Kbps\n\nVideo\nFormat : AVC\nFormat/Info : Advanced Video Codec\nFormat profile : &lt;a class=&quot;__cf_email__&quot; href=&quot;/cdn-cgi/l/email-protection&quot; data-cfemail=&quot;92dff3fbfcd2dea1bca2&quot;&gt;[email&amp;#160;protected]&lt;/a&gt;&lt;script cf-hash='f9e31' type=&quot;text/javascript&quot;&gt;\n/* &lt;![CDATA[ */!function(){try{var t=&quot;currentScript&quot;in document?document.currentScript:function(){for(var t=document.getElementsByTagName(&quot;script&quot;),e=t.length;e--;)if(t[e].getAttribute(&quot;cf-hash&quot;))return t[e]}();if(t&amp;&amp;t.previousSibling){var e,r,n,i,c=t.previousSibling,a=c.getAttribute(&quot;data-cfemail&quot;);if(a){for(e=&quot;&quot;,r=parseInt(a.substr(0,2),16),n=2;a.length-n;n+=2)i=parseInt(a.substr(n,2),16)^r,e+=String.fromCharCode(i);e=document.createTextNode(e),c.parentNode.replaceChild(e,c)}}}catch(u){}}();/* ]]&gt; */&lt;/script&gt;\nFormat settings, CABAC : Yes\nFormat settings, ReFrames : 3 frames\nFormat settings, GOP : M=1, N=25\nCodec ID : 7\nDuration : 2h 42mn\nBit rate : 638 Kbps\nWidth : 640 pixels\nHeight : 480 pixels\nDisplay aspect ratio : 4:3\nFrame rate mode : Constant\nFrame rate : 25.000 fps\nColor space : YUV\nBit depth : 8 bits\nScan type : Progressive\nBits/(Pixel*Frame) : 0.083\nStream size : 743 MiB (82%)\n\nAudio\nFormat : AAC\nFormat/Info : Advanced Audio Codec\nFormat profile : LC\nCodec ID : 10\nDuration : 2h 42mn\nBit rate : 129 Kbps\nChannel(s) : 2 channels\nChannel positions : Front: L R\nSampling rate : 44.1 KHz\nCompression mode : Lossy\nStream size : 150 MiB (17%) \n\nAbout this movie\n\nGenres: Indian Cinema, Classics, Romance\nLanguage: Hindi\nRunning time: 2:42:44\nReleased: Jan 1, 1963\n\n \n\n\nCast &amp; Crew\nCast\n\n    Ashok Kumar\n    Rajendra Kumar\n    Sadhana\n    Nimmi\n    Johnny Walker\n    Pran\n    Sundar\n    Ameeta\n    Mumtaz Begum\n\nDirectors\n\n    H.S. Rawail\n\nProducers\n\n    Jagdish Raj\n    H.S. Rawail\n\n\n\nWhile studying in Aligarh University, Anwar (Rajendra Kumar) falls hopelessly in love with a veiled woman and is unable to get her out of his mind. Anwar meets up with the wealthy Nawab Buland Akhtar Changezi (Ashok Kumar) so that he can use his influence to secure a job. Nawab asks Anwar to teach his sister, Husna (Sadhana) poetry, to which he agrees, and eventually finds that she is the very same veiled woman he feel in love with. What follows is a series of misunderstandings that lead to mistaken identities and misdirected romances. Soon, Husna too falls in love with Anwar and Nawab approves of this alliance and makes arrangements for their wedding. But when Nawab finds out that Anwar's sister is a lowly courtesan by the name Najma (Nimmi), he calls off the wedding. Nawab, under the pressure of debt, arranges Husna's marriage to the wicked and wealthy Munne Raja (Pran), who is all set to auction Nawab's mansion. With the odds stacked against them, will Anwar and Husna triumph in their love?\n\n","torrent":{"xt":"urn:btih:602150fcd2f0ef3589306c588de2a58ce9f0c0f1","amp;dn":"Mere+Mehboob+1963+1CD+Dvdrip+X264+AAC+%5BDADA%5D","amp;tr":["udp%3A%2F%2Ftracker.openbittorrent.com%3A80","udp%3A%2F%2Fopen.demonii.com%3A1337","udp%3A%2F%2Ftracker.coppersurfer.tk%3A6969","udp%3A%2F%2Fexodus.desync.com%3A6969"],"infoHash":"602150fcd2f0ef3589306c588de2a58ce9f0c0f1","infoHashBuffer":{"type":"Buffer","data":[96,33,80,252,210,240,239,53,137,48,108,88,141,226,165,140,233,240,192,241]},"announce":[],"urlList":[]}}